<svg clip-rule="evenodd" fill="#222222" fill-rule="evenodd" stroke-linejoin="round" stroke-miterlimit="2" viewBox="0 0 128 105" xmlns="http://www.w3.org/2000/svg"><path d="m221.952 51.288c.148 2.166.148 4.341.148 6.527 0 66.733-50.804 143.685-143.686 143.685v-.039c-27.441.036-54.312-7.825-77.406-22.646 3.99.478 8.004.722 12.022.729 22.743.023 44.833-7.606 62.716-21.659-21.606-.406-40.564-14.499-47.18-35.071 7.567 1.458 15.368 1.162 22.802-.866-23.563-4.76-40.508-25.464-40.514-49.503v-.639c7.023 3.914 14.884 6.082 22.92 6.32-22.192-14.818-29.038-44.337-15.634-67.412 25.642 31.548 63.472 50.727 104.077 52.762-4.071-17.537 1.494-35.916 14.609-48.25 20.336-19.125 52.325-18.143 71.45 2.193 11.309-2.23 22.154-6.376 32.067-12.257-3.769 11.693-11.659 21.62-22.201 27.931 10.011-1.183 19.788-3.861 29.004-7.945-6.78 10.14-15.311 18.991-25.194 26.14z" fill-rule="nonzero" transform="matrix(.520033 0 0 .520033 -.524194 -.780403)"/></svg>